<svg width="24" height="25" viewBox="0 0 24 25" fill="none" xmlns="http://www.w3.org/2000/svg">
<path d="M12.85 12.11C12.6833 12.2766 12.5 12.3183 12.3 12.235C12.1 12.1516 12 11.9933 12 11.76V3.95998C12 3.67665 12.096 3.43898 12.288 3.24698C12.48 3.05498 12.7173 2.95931 13 2.95998H20C20.2833 2.95998 20.521 3.05598 20.713 3.24798C20.905 3.43998 21.0007 3.67731 21 3.95998V8.95998C21 9.24331 20.904 9.48098 20.712 9.67298C20.52 9.86498 20.2827 9.96065 20 9.95998H15L12.85 12.11ZM19.95 21.01C17.8 21.01 15.7043 20.5306 13.663 19.572C11.6217 18.6133 9.81333 17.3466 8.238 15.772C6.66267 14.1973 5.396 12.389 4.438 10.347C3.48 8.30498 3.00067 6.20931 3 4.05998C3 3.75998 3.1 3.50998 3.3 3.30998C3.5 3.10998 3.75 3.00998 4.05 3.00998H8.1C8.33333 3.00998 8.54167 3.08498 8.725 3.23498C8.90833 3.38498 9.01667 3.57665 9.05 3.80998L9.7 7.30998C9.73333 7.54331 9.729 7.75598 9.687 7.94798C9.645 8.13998 9.54933 8.31065 9.4 8.45998L7 10.91C7.7 12.11 8.575 13.235 9.625 14.285C10.675 15.335 11.8333 16.2433 13.1 17.01L15.45 14.66C15.6 14.51 15.796 14.3976 16.038 14.323C16.28 14.2483 16.5173 14.2273 16.75 14.26L20.2 14.96C20.4333 15.01 20.625 15.1226 20.775 15.298C20.925 15.4733 21 15.6773 21 15.91V19.96C21 20.26 20.9 20.51 20.7 20.71C20.5 20.91 20.25 21.01 19.95 21.01Z" fill="white"/>
</svg>
