<svg width="101" height="101" viewBox="0 0 101 101" fill="none" xmlns="http://www.w3.org/2000/svg">
<path d="M50.5 0.00997925C22.93 0.00997925 0.5 22.44 0.5 50.01C0.5 77.58 22.93 100.01 50.5 100.01C78.07 100.01 100.5 77.58 100.5 50.01C100.5 22.44 78.07 0.00997925 50.5 0.00997925ZM50.5 97.5163C24.305 97.5163 2.99367 76.2049 2.99367 50.01C2.99367 23.815 24.305 2.50365 50.5 2.50365C76.695 2.50365 98.0063 23.8145 98.0063 50.01C98.0063 76.2054 76.695 97.5163 50.5 97.5163Z" fill="url(#paint0_linear_37_1692)"/>
<path d="M66.499 16.8039H35.0177C33.6529 16.8039 32.5611 17.8957 32.5611 19.2605V50.6963C32.5611 52.0611 33.6529 53.1529 35.0177 53.1529H66.4535C67.8183 53.1529 68.9101 52.0611 68.9101 50.6963V19.2605C68.9556 17.8957 67.8638 16.8039 66.499 16.8039ZM43.9344 22.9455C44.8442 22.9455 45.6176 23.7188 45.6176 24.6287C45.6176 25.5386 44.8442 26.3119 43.9344 26.3119C43.0245 26.3119 42.2511 25.5386 42.2511 24.6287C42.2511 23.7188 43.0245 22.9455 43.9344 22.9455ZM46.573 47.0568L44.4803 37.2758H43.4339L41.3412 47.0568L39.658 46.7839L41.0228 36.6844C41.0228 36.5479 41.0683 36.3659 41.0683 36.2295L41.0228 30.5428L40.9318 30.6793L40.6589 31.0887L40.4769 31.3162L37.4288 34.8647L36.5645 33.8183L39.0666 30.4063L41.1138 27.8587C41.3412 27.5858 41.6597 27.3583 42.0236 27.2673L43.5249 26.8579C43.5704 26.8579 43.6159 26.8579 43.6614 26.8124L43.2975 31.8166L43.9344 32.6355L44.5713 31.8166L44.2528 26.8579C44.2983 26.8579 44.3438 26.8579 44.3893 26.9034L45.8451 27.3128L46.027 27.3583C46.3455 27.4493 46.6185 27.5858 46.8914 27.7222L48.2562 28.5866C48.3472 28.6321 48.4837 28.6776 48.5747 28.7686C48.7566 28.8596 48.9386 28.9051 49.1661 28.9506L53.6244 29.8604L53.124 31.1342L48.8021 30.5428C48.7111 30.5428 48.6656 30.4973 48.5747 30.4973C48.1197 30.4063 47.7103 30.2244 47.3463 29.9969L46.8914 29.7239L46.8459 35.911C46.8459 36.275 46.8459 36.6389 46.9369 37.0028L48.2562 46.7839L46.573 47.0568ZM64.9522 34.4097C64.9522 35.5471 64.0423 36.4569 62.905 36.4569H57.1729V36.5479L57.2184 36.9574L60.7668 43.0534L60.0389 43.4629L57.1729 38.5041V44.4182H56.354V38.5041L53.4879 43.4629L52.76 43.0534L56.3085 36.9574L56.354 36.5479V36.4569H50.5764C49.439 36.4569 48.5292 35.5471 48.5292 34.4097V30.9068C48.5747 30.9068 48.6656 30.9523 48.7111 30.9523L53.3514 31.5892L54.1248 29.542L49.1661 28.4956C48.9386 28.4501 48.7111 28.3591 48.5292 28.2227V25.766C48.5292 24.6287 49.439 23.7188 50.5764 23.7188H62.9505C64.0878 23.7188 64.9977 24.6287 64.9977 25.766V34.4097H64.9522Z" fill="url(#paint1_linear_37_1692)"/>
<path d="M33.5254 75.3563C31.2332 75.3563 29.1015 74.4624 27.6116 72.9954C26.8781 72.2619 26.2822 71.3679 25.8466 70.3136C25.4111 69.2362 25.1819 68.0902 25.1819 66.8753C25.1819 65.6375 25.4111 64.4685 25.8696 63.3912C26.328 62.3139 26.924 61.397 27.6804 60.6635C29.2161 59.1736 31.3478 58.2797 33.5941 58.2797C35.3591 58.2797 36.9636 58.8069 38.0409 59.5633C38.5911 59.9301 39.0724 60.3656 39.5079 60.8469C40.356 61.8326 40.8145 62.8182 41.0666 63.7809L39.3933 64.3769C39.2558 63.8267 39.0266 63.2308 38.4077 62.3597C38.0868 61.9242 37.743 61.5346 37.3304 61.1907C36.9178 60.8469 36.3906 60.5489 35.7259 60.3197C35.0611 60.0676 34.3506 59.953 33.5483 59.953C31.8063 59.953 30.133 60.6635 28.964 61.8326C27.7721 63.0245 27.0156 64.7894 27.0156 66.7607C27.0156 68.0672 27.2907 69.2592 27.8637 70.3136C28.4139 71.3679 29.1932 72.1931 30.2247 72.7891C31.2103 73.385 32.3335 73.683 33.5712 73.683C35.107 73.683 36.4364 73.1558 37.2387 72.514C37.6513 72.1931 38.018 71.8264 38.3389 71.3679C38.6598 70.9324 38.889 70.5428 39.0495 70.2219C39.187 69.901 39.3246 69.5571 39.4392 69.2133L41.1124 69.8093C40.8603 70.7032 40.4248 71.6201 39.5767 72.6516C39.1641 73.1558 38.6598 73.6143 38.1326 74.0039C37.0324 74.7833 35.3591 75.3563 33.5254 75.3563ZM57.114 75.1729L55.2803 70.9095H46.1804L44.3467 75.1729H42.5588L49.7562 58.4631H51.7504L58.9707 75.1729H57.114ZM54.6156 69.305L50.7189 60.2739L46.8451 69.305H54.6156ZM74.2158 75.1729L72.3821 70.9095H63.2822L61.4485 75.1729H59.6606L66.858 58.4631H68.8522L76.0725 75.1729H74.2158ZM71.7174 69.305L67.8207 60.2739L63.947 69.305H71.7174Z" fill="url(#paint2_linear_37_1692)"/>
<path d="M30.3116 77.8726L28.0716 83.4457H27.4218L25.1819 77.8726H25.8241L27.7506 82.7882L29.6847 77.8726H30.3116ZM31.4361 83.4457V77.8726H32.0248V83.4457H31.4361ZM36.1155 77.8726H36.6965V81.7103C36.6965 82.2225 36.536 82.6583 36.2225 82.9946C35.9091 83.331 35.5039 83.4992 35.007 83.4992C34.4719 83.4992 34.0514 83.3387 33.738 83.0176C33.4245 82.6965 33.264 82.2607 33.264 81.7256V81.1752H33.845V81.7027C33.845 82.1231 33.9826 82.4595 34.2043 82.6583C34.426 82.8494 34.6936 82.9488 34.9841 82.9488C35.3128 82.9488 35.5804 82.8341 35.7944 82.5971C36.0085 82.3678 36.1155 82.0696 36.1155 81.7256V77.8726ZM42.4767 83.4457L41.8651 82.0237H38.8302L38.2186 83.4457H37.6223L40.0227 77.8726H40.6878L43.0959 83.4457H42.4767ZM41.6434 81.4886L40.3438 78.4766L39.0519 81.4886H41.6434ZM45.9482 80.5407L47.7295 77.8726H48.3945L46.2387 81.0911V83.4457H45.6424V81.0987L43.4866 77.8726H44.1899L45.9482 80.5407ZM53.6396 83.4457L53.0281 82.0237H49.9931L49.3815 83.4457H48.7852L51.1857 77.8726H51.8508L54.2589 83.4457H53.6396ZM52.8064 81.4886L51.5067 78.4766L50.2148 81.4886H52.8064ZM57.0118 81.2669H55.8268V83.4457H55.2382V77.8726H57.1035C58.4643 77.865 59.0606 78.683 59.0606 79.5468C59.0606 80.0285 58.8771 80.4489 58.5484 80.7624C58.212 81.0758 57.6692 81.2669 57.0118 81.2669ZM57.0576 78.4231H55.8268V80.7241H57.027C57.524 80.7241 57.9138 80.5789 58.1355 80.3495C58.3572 80.1278 58.4643 79.8526 58.4643 79.5621C58.4643 79.0193 58.1508 78.4231 57.0576 78.4231ZM63.8011 77.8726H64.3897V81.2669C64.3897 81.9702 64.1986 82.5207 63.8393 82.9105C63.4724 83.3004 62.9525 83.4992 62.2874 83.4992C61.63 83.4992 61.1101 83.3004 60.7508 82.9029C60.3839 82.5054 60.2004 81.9779 60.2004 81.3051V77.8726H60.7814V81.2746C60.7814 81.8632 60.9496 82.3142 61.2248 82.5665C61.5077 82.8264 61.867 82.9488 62.318 82.9488C62.792 82.9488 63.1589 82.8112 63.4189 82.5207C63.6711 82.2302 63.8011 81.8326 63.8011 81.3051V77.8726ZM70.1241 83.4457H69.4131L67.7619 81.1905H66.6304V83.4457H66.0418V77.8726H67.9759C68.6334 77.8726 69.1608 78.0561 69.4666 78.3619C69.7724 78.6677 69.933 79.0499 69.933 79.501C69.933 80.4413 69.2297 80.9841 68.404 81.0911L70.1241 83.4457ZM66.6304 78.4231V80.6553H67.9224C68.4117 80.6553 68.7939 80.5177 69.0156 80.296C69.2297 80.082 69.3367 79.8144 69.3367 79.5163C69.3367 78.9658 69.0003 78.4231 67.9377 78.4231H66.6304ZM75.4533 83.4457L74.8417 82.0237H71.8067L71.1951 83.4457H70.5988L72.9993 77.8726H73.6644L76.0725 83.4457H75.4533ZM74.62 81.4886L73.3204 78.4766L72.0284 81.4886H74.62Z" fill="url(#paint3_linear_37_1692)"/>
<defs>
<linearGradient id="paint0_linear_37_1692" x1="0.5" y1="0.00997925" x2="100.5" y2="0.00997925" gradientUnits="userSpaceOnUse">
<stop stop-color="#6750A4"/>
<stop offset="0.5" stop-color="#8F78CA"/>
<stop offset="1" stop-color="#6750A4"/>
</linearGradient>
<linearGradient id="paint1_linear_37_1692" x1="32.5611" y1="16.8039" x2="68.9115" y2="16.8039" gradientUnits="userSpaceOnUse">
<stop stop-color="#6750A4"/>
<stop offset="0.5" stop-color="#8F78CA"/>
<stop offset="1" stop-color="#6750A4"/>
</linearGradient>
<linearGradient id="paint2_linear_37_1692" x1="25.1819" y1="58.2797" x2="76.0725" y2="58.2797" gradientUnits="userSpaceOnUse">
<stop stop-color="#6750A4"/>
<stop offset="0.5" stop-color="#8F78CA"/>
<stop offset="1" stop-color="#6750A4"/>
</linearGradient>
<linearGradient id="paint3_linear_37_1692" x1="25.1819" y1="77.8726" x2="76.0725" y2="77.8726" gradientUnits="userSpaceOnUse">
<stop stop-color="#6750A4"/>
<stop offset="0.5" stop-color="#8F78CA"/>
<stop offset="1" stop-color="#6750A4"/>
</linearGradient>
</defs>
</svg>
