<svg width="331" height="331" viewBox="0 0 331 331" fill="none" xmlns="http://www.w3.org/2000/svg">
<path d="M165.391 0C74.1947 0 0 74.1947 0 165.391C0 256.588 74.1947 330.783 165.391 330.783C256.588 330.783 330.783 256.588 330.783 165.391C330.783 74.1947 256.588 0 165.391 0ZM165.391 322.534C78.743 322.534 8.24862 252.04 8.24862 165.391C8.24862 78.743 78.743 8.24862 165.391 8.24862C252.04 8.24862 322.534 78.7413 322.534 165.391C322.534 252.041 252.04 322.534 165.391 322.534Z" fill="url(#paint0_linear_206_624)"/>
<path d="M218.313 55.5513H114.179C109.664 55.5513 106.052 59.1629 106.052 63.6774V167.662C106.052 172.176 109.664 175.788 114.179 175.788H218.163C222.677 175.788 226.289 172.176 226.289 167.662V63.6774C226.439 59.1629 222.828 55.5513 218.313 55.5513ZM143.673 75.8666C146.683 75.8666 149.241 78.4248 149.241 81.4345C149.241 84.4441 146.683 87.0023 143.673 87.0023C140.664 87.0023 138.105 84.4441 138.105 81.4345C138.105 78.4248 140.664 75.8666 143.673 75.8666ZM152.401 155.623L145.479 123.269H142.018L135.096 155.623L129.528 154.72L134.042 121.313C134.042 120.861 134.193 120.259 134.193 119.808L134.042 100.997L133.741 101.449L132.839 102.803L132.237 103.556L122.154 115.293L119.295 111.832L127.572 100.546L134.343 92.1188C135.096 91.2159 136.149 90.4635 137.353 90.1625L142.319 88.8081C142.47 88.8081 142.62 88.8081 142.77 88.6577L141.567 105.211L143.673 107.92L145.78 105.211L144.727 88.8081C144.877 88.8081 145.028 88.8081 145.178 88.9586L149.994 90.313L150.596 90.4635C151.649 90.7644 152.552 91.2159 153.455 91.6673L157.969 94.5265C158.27 94.677 158.722 94.8275 159.023 95.1285C159.625 95.4294 160.227 95.5799 160.979 95.7304L175.726 98.7401L174.071 102.954L159.775 100.997C159.474 100.997 159.324 100.847 159.023 100.847C157.518 100.546 156.164 99.9439 154.96 99.1915L153.455 98.2886L153.304 118.754C153.304 119.958 153.304 121.162 153.605 122.366L157.969 154.72L152.401 155.623ZM213.197 113.788C213.197 117.551 210.187 120.56 206.425 120.56H187.464V120.861L187.615 122.216L199.352 142.38L196.945 143.735L187.464 127.332V146.895H184.755V127.332L175.275 143.735L172.867 142.38L184.605 122.216L184.755 120.861V120.56H165.644C161.882 120.56 158.872 117.551 158.872 113.788V102.201C159.023 102.201 159.324 102.352 159.474 102.352L174.824 104.458L177.382 97.6867L160.979 94.2256C160.227 94.0751 159.474 93.7741 158.872 93.3227V85.1965C158.872 81.4345 161.882 78.4248 165.644 78.4248H206.576C210.338 78.4248 213.347 81.4345 213.347 85.1965V113.788H213.197Z" fill="url(#paint1_linear_206_624)"/>
<path d="M98.6116 257.556L91.2023 275.991H89.0528L81.6436 257.556H83.7677L90.1402 273.816L96.538 257.556H98.6116ZM102.331 275.991V257.556H104.279V275.991H102.331ZM117.81 257.556H119.732V270.251C119.732 271.945 119.201 273.386 118.164 274.499C117.127 275.612 115.787 276.168 114.143 276.168C112.373 276.168 110.982 275.637 109.945 274.575C108.909 273.513 108.378 272.071 108.378 270.301V268.481H110.3V270.225C110.3 271.616 110.755 272.729 111.488 273.386C112.221 274.019 113.106 274.347 114.067 274.347C115.155 274.347 116.04 273.968 116.748 273.184C117.456 272.425 117.81 271.439 117.81 270.301V257.556ZM138.852 275.991L136.829 271.287H126.79L124.767 275.991H122.794L130.734 257.556H132.934L140.9 275.991H138.852ZM136.095 269.517L131.797 259.554L127.523 269.517H136.095ZM150.335 266.382L156.227 257.556H158.427L151.296 268.202V275.991H149.323V268.228L142.192 257.556H144.519L150.335 266.382ZM175.777 275.991L173.754 271.287H163.715L161.692 275.991H159.719L167.659 257.556H169.86L177.825 275.991H175.777ZM173.02 269.517L168.722 259.554L164.448 269.517H173.02ZM186.931 268.784H183.012V275.991H181.064V257.556H187.235C191.736 257.531 193.708 260.237 193.708 263.094C193.708 264.687 193.101 266.078 192.014 267.115C190.901 268.152 189.106 268.784 186.931 268.784ZM187.083 259.377H183.012V266.989H186.982C188.625 266.989 189.915 266.508 190.648 265.749C191.382 265.016 191.736 264.106 191.736 263.145C191.736 261.349 190.699 259.377 187.083 259.377ZM209.389 257.556H211.336V268.784C211.336 271.11 210.704 272.931 209.516 274.221C208.302 275.51 206.582 276.168 204.382 276.168C202.207 276.168 200.488 275.51 199.299 274.196C198.086 272.881 197.479 271.136 197.479 268.91V257.556H199.401V268.809C199.401 270.756 199.957 272.248 200.867 273.083C201.803 273.943 202.991 274.347 204.483 274.347C206.051 274.347 207.265 273.892 208.125 272.931C208.959 271.97 209.389 270.655 209.389 268.91V257.556ZM230.305 275.991H227.953L222.491 268.531H218.748V275.991H216.801V257.556H223.199C225.373 257.556 227.118 258.163 228.13 259.175C229.141 260.186 229.672 261.451 229.672 262.943C229.672 266.053 227.346 267.848 224.615 268.202L230.305 275.991ZM218.748 259.377V266.761H223.022C224.64 266.761 225.905 266.306 226.638 265.572C227.346 264.864 227.7 263.979 227.7 262.993C227.7 261.172 226.587 259.377 223.072 259.377H218.748ZM247.933 275.991L245.91 271.287H235.87L233.847 275.991H231.875L239.815 257.556H242.015L249.981 275.991H247.933ZM245.176 269.517L240.877 259.554L236.604 269.517H245.176Z" fill="url(#paint2_linear_206_624)"/>
<path d="M165.391 0C74.1947 0 0 74.1947 0 165.391C0 256.588 74.1947 330.783 165.391 330.783C256.588 330.783 330.783 256.588 330.783 165.391C330.783 74.1947 256.588 0 165.391 0ZM165.391 322.534C78.743 322.534 8.24862 252.04 8.24862 165.391C8.24862 78.743 78.743 8.24862 165.391 8.24862C252.04 8.24862 322.534 78.7413 322.534 165.391C322.534 252.041 252.04 322.534 165.391 322.534Z" fill="url(#paint3_linear_206_624)"/>
<path d="M112.779 242C105.697 242 99.1103 239.226 94.5069 234.672C92.2407 232.396 90.3994 229.621 89.0538 226.349C87.7082 223.005 87 219.448 87 215.678C87 211.836 87.7082 208.208 89.1246 204.864C90.541 201.521 92.3823 198.675 94.7194 196.399C99.4644 191.774 106.051 189 112.991 189C118.444 189 123.402 190.636 126.73 192.984C128.43 194.122 129.917 195.474 131.263 196.968C133.883 200.027 135.299 203.086 136.078 206.074L130.909 207.923C130.484 206.216 129.775 204.366 127.863 201.663C126.872 200.311 125.81 199.102 124.535 198.035C123.26 196.968 121.631 196.043 119.577 195.332C117.524 194.549 115.328 194.193 112.849 194.193C107.467 194.193 102.297 196.399 98.6853 200.027C95.0027 203.726 92.6656 209.204 92.6656 215.322C92.6656 219.377 93.5155 223.077 95.286 226.349C96.9857 229.621 99.3935 232.183 102.58 234.032C105.626 235.882 109.096 236.807 112.92 236.807C117.665 236.807 121.773 235.17 124.251 233.179C125.526 232.183 126.659 231.044 127.651 229.621C128.642 228.27 129.351 227.06 129.846 226.064C130.271 225.068 130.696 224.001 131.05 222.934L136.22 224.784C135.441 227.558 134.095 230.404 131.475 233.605C130.2 235.17 128.642 236.593 127.013 237.803C123.614 240.221 118.444 242 112.779 242ZM168.089 242C161.007 242 154.421 239.226 149.818 234.672C147.551 232.396 145.71 229.621 144.364 226.349C143.019 223.005 142.311 219.448 142.311 215.678C142.311 211.836 143.019 208.208 144.435 204.864C145.852 201.521 147.693 198.675 150.03 196.399C154.775 191.774 161.361 189 168.302 189C173.755 189 178.712 190.636 182.041 192.984C183.74 194.122 185.228 195.474 186.573 196.968C189.194 200.027 190.61 203.086 191.389 206.074L186.219 207.923C185.794 206.216 185.086 204.366 183.174 201.663C182.182 200.311 181.12 199.102 179.845 198.035C178.571 196.968 176.942 196.043 174.888 195.332C172.834 194.549 170.639 194.193 168.16 194.193C162.778 194.193 157.608 196.399 153.996 200.027C150.313 203.726 147.976 209.204 147.976 215.322C147.976 219.377 148.826 223.077 150.597 226.349C152.296 229.621 154.704 232.183 157.891 234.032C160.936 235.882 164.407 236.807 168.231 236.807C172.976 236.807 177.083 235.17 179.562 233.179C180.837 232.183 181.97 231.044 182.961 229.621C183.953 228.27 184.661 227.06 185.157 226.064C185.582 225.068 186.007 224.001 186.361 222.934L191.531 224.784C190.752 227.558 189.406 230.404 186.786 233.605C185.511 235.17 183.953 236.593 182.324 237.803C178.925 240.221 173.755 242 168.089 242ZM239.264 241.431L233.598 228.199H205.482L199.817 241.431H194.293L216.53 189.569H222.692L245 241.431H239.264ZM231.544 223.219L219.505 195.189L207.536 223.219H231.544Z" fill="url(#paint4_linear_206_624)"/>
<path d="M218.313 55.5513H114.179C109.664 55.5513 106.052 59.1629 106.052 63.6774V167.662C106.052 172.176 109.664 175.788 114.179 175.788H218.163C222.677 175.788 226.289 172.176 226.289 167.662V63.6774C226.439 59.1629 222.828 55.5513 218.313 55.5513ZM143.673 75.8666C146.683 75.8666 149.241 78.4248 149.241 81.4345C149.241 84.4441 146.683 87.0023 143.673 87.0023C140.664 87.0023 138.105 84.4441 138.105 81.4345C138.105 78.4248 140.664 75.8666 143.673 75.8666ZM152.401 155.623L145.479 123.269H142.018L135.096 155.623L129.528 154.72L134.042 121.313C134.042 120.861 134.193 120.259 134.193 119.808L134.042 100.997L133.741 101.449L132.839 102.803L132.237 103.556L122.154 115.293L119.295 111.832L127.572 100.546L134.343 92.1188C135.096 91.2159 136.149 90.4635 137.353 90.1625L142.319 88.8081C142.47 88.8081 142.62 88.8081 142.77 88.6577L141.567 105.211L143.673 107.92L145.78 105.211L144.727 88.8081C144.877 88.8081 145.028 88.8081 145.178 88.9586L149.994 90.313L150.596 90.4635C151.649 90.7644 152.552 91.2159 153.455 91.6673L157.969 94.5265C158.27 94.677 158.722 94.8275 159.023 95.1285C159.625 95.4294 160.227 95.5799 160.979 95.7304L175.726 98.7401L174.071 102.954L159.775 100.997C159.474 100.997 159.324 100.847 159.023 100.847C157.518 100.546 156.164 99.9439 154.96 99.1915L153.455 98.2886L153.304 118.754C153.304 119.958 153.304 121.162 153.605 122.366L157.969 154.72L152.401 155.623ZM213.197 113.788C213.197 117.551 210.187 120.56 206.425 120.56H187.464V120.861L187.615 122.216L199.352 142.38L196.945 143.735L187.464 127.332V146.895H184.755V127.332L175.275 143.735L172.867 142.38L184.605 122.216L184.755 120.861V120.56H165.644C161.882 120.56 158.872 117.551 158.872 113.788V102.201C159.023 102.201 159.324 102.352 159.474 102.352L174.824 104.458L177.382 97.6867L160.979 94.2256C160.227 94.0751 159.474 93.7741 158.872 93.3227V85.1965C158.872 81.4345 161.882 78.4248 165.644 78.4248H206.576C210.338 78.4248 213.347 81.4345 213.347 85.1965V113.788H213.197Z" fill="url(#paint5_linear_206_624)"/>
<path d="M98.6116 257.556L91.2023 275.991H89.0528L81.6436 257.556H83.7677L90.1402 273.816L96.538 257.556H98.6116ZM102.331 275.991V257.556H104.279V275.991H102.331ZM117.81 257.556H119.732V270.251C119.732 271.945 119.201 273.386 118.164 274.499C117.127 275.612 115.787 276.168 114.143 276.168C112.373 276.168 110.982 275.637 109.945 274.575C108.909 273.513 108.378 272.071 108.378 270.301V268.481H110.3V270.225C110.3 271.616 110.755 272.729 111.488 273.386C112.221 274.019 113.106 274.347 114.067 274.347C115.155 274.347 116.04 273.968 116.748 273.184C117.456 272.425 117.81 271.439 117.81 270.301V257.556ZM138.852 275.991L136.829 271.287H126.79L124.767 275.991H122.794L130.734 257.556H132.934L140.9 275.991H138.852ZM136.095 269.517L131.797 259.554L127.523 269.517H136.095ZM150.335 266.382L156.227 257.556H158.427L151.296 268.202V275.991H149.323V268.228L142.192 257.556H144.519L150.335 266.382ZM175.777 275.991L173.754 271.287H163.715L161.692 275.991H159.719L167.659 257.556H169.86L177.825 275.991H175.777ZM173.02 269.517L168.722 259.554L164.448 269.517H173.02ZM186.931 268.784H183.012V275.991H181.064V257.556H187.235C191.736 257.531 193.708 260.237 193.708 263.094C193.708 264.687 193.101 266.078 192.014 267.115C190.901 268.152 189.106 268.784 186.931 268.784ZM187.083 259.377H183.012V266.989H186.982C188.625 266.989 189.915 266.508 190.648 265.749C191.382 265.016 191.736 264.106 191.736 263.145C191.736 261.349 190.699 259.377 187.083 259.377ZM209.389 257.556H211.336V268.784C211.336 271.11 210.704 272.931 209.516 274.221C208.302 275.51 206.582 276.168 204.382 276.168C202.207 276.168 200.488 275.51 199.299 274.196C198.086 272.881 197.479 271.136 197.479 268.91V257.556H199.401V268.809C199.401 270.756 199.957 272.248 200.867 273.083C201.803 273.943 202.991 274.347 204.483 274.347C206.051 274.347 207.265 273.892 208.125 272.931C208.959 271.97 209.389 270.655 209.389 268.91V257.556ZM230.305 275.991H227.953L222.491 268.531H218.748V275.991H216.801V257.556H223.199C225.373 257.556 227.118 258.163 228.13 259.175C229.141 260.186 229.672 261.451 229.672 262.943C229.672 266.053 227.346 267.848 224.615 268.202L230.305 275.991ZM218.748 259.377V266.761H223.022C224.64 266.761 225.905 266.306 226.638 265.572C227.346 264.864 227.7 263.979 227.7 262.993C227.7 261.172 226.587 259.377 223.072 259.377H218.748ZM247.933 275.991L245.91 271.287H235.87L233.847 275.991H231.875L239.815 257.556H242.015L249.981 275.991H247.933ZM245.176 269.517L240.877 259.554L236.604 269.517H245.176Z" fill="url(#paint6_linear_206_624)"/>
<defs>
<linearGradient id="paint0_linear_206_624" x1="0" y1="0" x2="330.783" y2="0" gradientUnits="userSpaceOnUse">
<stop stop-color="#6750A4"/>
<stop offset="0.5" stop-color="#8F78CA"/>
<stop offset="1" stop-color="#6750A4"/>
</linearGradient>
<linearGradient id="paint1_linear_206_624" x1="106.052" y1="55.5513" x2="226.293" y2="55.5513" gradientUnits="userSpaceOnUse">
<stop stop-color="#6750A4"/>
<stop offset="0.5" stop-color="#8F78CA"/>
<stop offset="1" stop-color="#6750A4"/>
</linearGradient>
<linearGradient id="paint2_linear_206_624" x1="81.6436" y1="257.556" x2="249.981" y2="257.556" gradientUnits="userSpaceOnUse">
<stop stop-color="#6750A4"/>
<stop offset="0.5" stop-color="#8F78CA"/>
<stop offset="1" stop-color="#6750A4"/>
</linearGradient>
<linearGradient id="paint3_linear_206_624" x1="0" y1="0" x2="330.783" y2="0" gradientUnits="userSpaceOnUse">
<stop stop-color="#6750A4"/>
<stop offset="0.5" stop-color="#8F78CA"/>
<stop offset="1" stop-color="#6750A4"/>
</linearGradient>
<linearGradient id="paint4_linear_206_624" x1="87" y1="189" x2="245" y2="189" gradientUnits="userSpaceOnUse">
<stop stop-color="#6851A5"/>
<stop offset="0.5" stop-color="#8F78CA"/>
<stop offset="1" stop-color="#6851A5"/>
</linearGradient>
<linearGradient id="paint5_linear_206_624" x1="106.052" y1="55.5513" x2="226.293" y2="55.5513" gradientUnits="userSpaceOnUse">
<stop stop-color="#6750A4"/>
<stop offset="0.5" stop-color="#8F78CA"/>
<stop offset="1" stop-color="#6750A4"/>
</linearGradient>
<linearGradient id="paint6_linear_206_624" x1="81.6436" y1="257.556" x2="249.981" y2="257.556" gradientUnits="userSpaceOnUse">
<stop stop-color="#6750A4"/>
<stop offset="0.5" stop-color="#8F78CA"/>
<stop offset="1" stop-color="#6750A4"/>
</linearGradient>
</defs>
</svg>
